<svg xmlns="http://www.w3.org/2000/svg" width="31" height="31" viewBox="0 0 31 31">
    <g fill="none" fill-rule="evenodd">
        <g>
            <g transform="translate(-345 -194) translate(345 194)">
                <rect width="30" height="30" x=".5" y=".5" fill="#FFF" stroke="#E4E5EC" rx="4"/>
                <g fill="#3B4DB2" fill-rule="nonzero" stroke="#3B4DB2" stroke-width=".65">
                    <path d="M10.873 4.328l-.006-.013C10.323 1.812 8.073 0 5.5 0 2.467 0 0 2.467 0 5.5c0 1.39.521 2.718 1.466 3.74l.07.073 6.191 1.62c.17.044.346.067.523.067.936 0 1.74-.615 1.987-1.507l.33-1.437c.261-.188.433-.492.433-.837V4.812c0-.176-.048-.34-.127-.484zM9.591 9.24c-.166.736-.966 1.216-1.69 1.027L1.904 8.7C1.12 7.816.688 6.683.688 5.5.688 2.846 2.846.687 5.5.687c2.01 0 3.789 1.267 4.487 3.096l-.018-.002H4.813c-.759 0-1.375.617-1.375 1.375 0 .442.214.86.573 1.117l1.765 1.268c.647.464 1.41.709 2.205.709h1.836l-.226.991zm.722-2.022c0 .19-.155.343-.344.343H7.98c-.652 0-1.275-.2-1.804-.58L4.412 5.715c-.18-.13-.287-.338-.287-.559 0-.379.308-.687.688-.687h5.156c.189 0 .344.154.344.343V7.22z" transform="translate(10 10)"/>
                </g>
            </g>
        </g>
    </g>
</svg>
