<svg xmlns="http://www.w3.org/2000/svg" width="31" height="31" viewBox="0 0 31 31">
    <g fill="none" fill-rule="evenodd">
        <g fill-rule="nonzero">
            <g>
                <g>
                    <path fill="#3C5A99" d="M15.078 15.957c.486 0 .88-.393.88-.879V.915c0-.485-.394-.879-.88-.879H.915C.43.036.036.43.036.915v14.163c0 .486.394.88.879.88h14.163z" transform="translate(-192 -286) translate(192 286) translate(0 7.5)"/>
                    <path fill="#FFF" d="M11.021 15.957V9.792h2.07l.31-2.403h-2.38V5.855c0-.696.194-1.17 1.191-1.17h1.272v-2.15c-.22-.029-.975-.094-1.854-.094-1.834 0-3.09 1.12-3.09 3.176v1.772H6.465v2.403H8.54v6.165h2.481z" transform="translate(-192 -286) translate(192 286) translate(0 7.5)"/>
                </g>
            </g>
        </g>
    </g>
</svg>
